<mxfile host="app.diagrams.net" modified="2023-08-11T23:01:37.766Z" agent="Mozilla/5.0 (X11; Linux x86_64; rv:109.0) Gecko/20100101 Firefox/116.0" etag="Ef4ewYMRQ8ei6YaDLpB6" version="21.6.8" type="github">
  <diagram name="Page-1" id="VJ6hSyN0_-9E2tcm2tPl">
    <mxGraphModel dx="1900" dy="544" grid="1" gridSize="10" guides="1" tooltips="1" connect="1" arrows="1" fold="1" page="1" pageScale="1" pageWidth="850" pageHeight="1100" math="0" shadow="0">
      <root>
        <mxCell id="0" />
        <mxCell id="1" parent="0" />
        <mxCell id="wgOrQeY7sTImsH8X3aAj-4" value="" style="edgeStyle=orthogonalEdgeStyle;rounded=0;orthogonalLoop=1;jettySize=auto;html=1;" parent="1" source="wgOrQeY7sTImsH8X3aAj-1" target="wgOrQeY7sTImsH8X3aAj-2" edge="1">
          <mxGeometry relative="1" as="geometry" />
        </mxCell>
        <mxCell id="wgOrQeY7sTImsH8X3aAj-1" value="main" style="rounded=0;whiteSpace=wrap;html=1;" parent="1" vertex="1">
          <mxGeometry width="120" height="60" as="geometry" />
        </mxCell>
        <mxCell id="wgOrQeY7sTImsH8X3aAj-5" value="" style="edgeStyle=orthogonalEdgeStyle;rounded=0;orthogonalLoop=1;jettySize=auto;html=1;" parent="1" source="wgOrQeY7sTImsH8X3aAj-2" target="wgOrQeY7sTImsH8X3aAj-3" edge="1">
          <mxGeometry relative="1" as="geometry" />
        </mxCell>
        <mxCell id="wgOrQeY7sTImsH8X3aAj-2" value="run_trin" style="whiteSpace=wrap;html=1;" parent="1" vertex="1">
          <mxGeometry y="120" width="120" height="60" as="geometry" />
        </mxCell>
        <mxCell id="wgOrQeY7sTImsH8X3aAj-26" style="edgeStyle=orthogonalEdgeStyle;rounded=0;orthogonalLoop=1;jettySize=auto;html=1;entryX=0;entryY=0.5;entryDx=0;entryDy=0;" parent="1" target="wgOrQeY7sTImsH8X3aAj-6" edge="1">
          <mxGeometry relative="1" as="geometry">
            <mxPoint y="340" as="sourcePoint" />
            <Array as="points">
              <mxPoint y="380" />
            </Array>
          </mxGeometry>
        </mxCell>
        <mxCell id="wgOrQeY7sTImsH8X3aAj-27" style="edgeStyle=orthogonalEdgeStyle;rounded=0;orthogonalLoop=1;jettySize=auto;html=1;entryX=0;entryY=0.5;entryDx=0;entryDy=0;" parent="1" source="wgOrQeY7sTImsH8X3aAj-3" target="wgOrQeY7sTImsH8X3aAj-10" edge="1">
          <mxGeometry relative="1" as="geometry">
            <Array as="points">
              <mxPoint x="60" y="330" />
              <mxPoint y="330" />
              <mxPoint y="470" />
            </Array>
          </mxGeometry>
        </mxCell>
        <mxCell id="wgOrQeY7sTImsH8X3aAj-3" value="initialize_history_network" style="whiteSpace=wrap;html=1;" parent="1" vertex="1">
          <mxGeometry x="-15" y="240" width="150" height="60" as="geometry" />
        </mxCell>
        <mxCell id="wgOrQeY7sTImsH8X3aAj-9" value="" style="edgeStyle=orthogonalEdgeStyle;rounded=0;orthogonalLoop=1;jettySize=auto;html=1;" parent="1" source="wgOrQeY7sTImsH8X3aAj-6" target="wgOrQeY7sTImsH8X3aAj-8" edge="1">
          <mxGeometry relative="1" as="geometry" />
        </mxCell>
        <mxCell id="wgOrQeY7sTImsH8X3aAj-6" value="HistoryNetwork::new" style="whiteSpace=wrap;html=1;" parent="1" vertex="1">
          <mxGeometry x="80" y="350" width="120" height="60" as="geometry" />
        </mxCell>
        <mxCell id="wgOrQeY7sTImsH8X3aAj-22" value="" style="edgeStyle=orthogonalEdgeStyle;rounded=0;orthogonalLoop=1;jettySize=auto;html=1;" parent="1" source="wgOrQeY7sTImsH8X3aAj-8" target="wgOrQeY7sTImsH8X3aAj-21" edge="1">
          <mxGeometry relative="1" as="geometry" />
        </mxCell>
        <mxCell id="wgOrQeY7sTImsH8X3aAj-8" value="OverlayProtocol::new" style="whiteSpace=wrap;html=1;" parent="1" vertex="1">
          <mxGeometry x="240" y="350" width="120" height="60" as="geometry" />
        </mxCell>
        <mxCell id="wgOrQeY7sTImsH8X3aAj-16" value="" style="edgeStyle=orthogonalEdgeStyle;rounded=0;orthogonalLoop=1;jettySize=auto;html=1;" parent="1" source="wgOrQeY7sTImsH8X3aAj-10" target="wgOrQeY7sTImsH8X3aAj-15" edge="1">
          <mxGeometry relative="1" as="geometry" />
        </mxCell>
        <mxCell id="wgOrQeY7sTImsH8X3aAj-10" value="spawn_history_network" style="whiteSpace=wrap;html=1;" parent="1" vertex="1">
          <mxGeometry x="80" y="440" width="130" height="60" as="geometry" />
        </mxCell>
        <mxCell id="wgOrQeY7sTImsH8X3aAj-18" value="" style="edgeStyle=orthogonalEdgeStyle;rounded=0;orthogonalLoop=1;jettySize=auto;html=1;" parent="1" source="wgOrQeY7sTImsH8X3aAj-15" target="wgOrQeY7sTImsH8X3aAj-17" edge="1">
          <mxGeometry relative="1" as="geometry" />
        </mxCell>
        <mxCell id="wgOrQeY7sTImsH8X3aAj-15" value="[loop] HistoryEvents::start" style="whiteSpace=wrap;html=1;" parent="1" vertex="1">
          <mxGeometry x="240" y="440" width="120" height="60" as="geometry" />
        </mxCell>
        <mxCell id="wgOrQeY7sTImsH8X3aAj-20" value="" style="edgeStyle=orthogonalEdgeStyle;rounded=0;orthogonalLoop=1;jettySize=auto;html=1;" parent="1" source="wgOrQeY7sTImsH8X3aAj-17" target="wgOrQeY7sTImsH8X3aAj-19" edge="1">
          <mxGeometry relative="1" as="geometry" />
        </mxCell>
        <mxCell id="wgOrQeY7sTImsH8X3aAj-17" value="HistoryEvents::handle_history_talk_request" style="whiteSpace=wrap;html=1;" parent="1" vertex="1">
          <mxGeometry x="400" y="440" width="250" height="60" as="geometry" />
        </mxCell>
        <mxCell id="wgOrQeY7sTImsH8X3aAj-19" value="OverlayProtocol::process_one_request" style="whiteSpace=wrap;html=1;" parent="1" vertex="1">
          <mxGeometry x="680" y="440" width="230" height="60" as="geometry" />
        </mxCell>
        <mxCell id="wgOrQeY7sTImsH8X3aAj-24" value="" style="edgeStyle=orthogonalEdgeStyle;rounded=0;orthogonalLoop=1;jettySize=auto;html=1;" parent="1" source="wgOrQeY7sTImsH8X3aAj-21" target="wgOrQeY7sTImsH8X3aAj-23" edge="1">
          <mxGeometry relative="1" as="geometry" />
        </mxCell>
        <mxCell id="wgOrQeY7sTImsH8X3aAj-21" value="OverlayService::spawn" style="whiteSpace=wrap;html=1;" parent="1" vertex="1">
          <mxGeometry x="400" y="350" width="130" height="60" as="geometry" />
        </mxCell>
        <mxCell id="wgOrQeY7sTImsH8X3aAj-23" value="[loop]&lt;br&gt;&lt;div&gt;OverlayService::start&lt;/div&gt;" style="whiteSpace=wrap;html=1;" parent="1" vertex="1">
          <mxGeometry x="570" y="350" width="120" height="60" as="geometry" />
        </mxCell>
      </root>
    </mxGraphModel>
  </diagram>
</mxfile>
